<svg xmlns="http://www.w3.org/2000/svg" viewBox="0 0 100 100" preserveAspectRatio="xMidYMid" width="100" height="100" style="shape-rendering: auto; display: block; background: transperent;" xmlns:xlink="http://www.w3.org/1999/xlink"><g><g transform="translate(50 50)">
<g>
<animateTransform repeatCount="indefinite" dur="0.3367003367003367s" keyTimes="0;1" values="0;51.42857142857143" type="rotate" attributeName="transform"></animateTransform><path fill="#000000" d="M29.047375096555626 -7.5 L40.047375096555626 -7.5 L40.047375096555626 7.5 L29.047375096555626 7.5 A30 30 0 0 1 23.974478261978003 18.033978819604513 L23.974478261978003 18.033978819604513 L30.832866082424076 26.634125126752842 L19.10539384540363 35.986472154633844 L12.247006024957559 27.386325847485516 A30 30 0 0 1 0.8483103058987309 29.98800376191963 L0.8483103058987309 29.98800376191963 L-1.5994199676207281 40.71221079591969 L-16.223338650348087 37.37439678657498 L-13.775608376828627 26.650189752574917 A30 30 0 0 1 -22.916652612898957 19.360450227711944 L-22.916652612898957 19.360450227711944 L-32.82731015982557 24.133171358005082 L-39.33556624658894 10.618638339468792 L-29.424908699662332 5.845917209175651 A30 30 0 0 1 -29.424908699662332 -5.845917209175644 L-29.424908699662332 -5.845917209175644 L-39.33556624658894 -10.61863833946878 L-32.82731015982557 -24.13317135800508 L-22.916652612898957 -19.36045022771194 A30 30 0 0 1 -13.775608376828632 -26.650189752574914 L-13.775608376828632 -26.650189752574914 L-16.223338650348094 -37.37439678657498 L-1.59941996762073 -40.71221079591969 L0.8483103058987304 -29.98800376191963 A30 30 0 0 1 12.247006024957544 -27.386325847485523 L12.247006024957544 -27.386325847485523 L19.10539384540361 -35.98647215463385 L30.83286608242407 -26.634125126752842 L23.974478261978003 -18.033978819604513 A30 30 0 0 1 29.047375096555623 -7.5000000000000115 M0 -18A18 18 0 1 0 0 18 A18 18 0 1 0 0 -18"></path></g></g><g></g></g><!-- [ldio] generated by https://loading.io --></svg>